<?xml version="1.0" encoding="utf-8"?>
<!-- Generator: Adobe Illustrator 24.0.1, SVG Export Plug-In . SVG Version: 6.00 Build 0)  -->
<svg version="1.1" id="Calque_1" xmlns="http://www.w3.org/2000/svg" xmlns:xlink="http://www.w3.org/1999/xlink" x="0px" y="0px"
	 viewBox="0 0 43 43" style="enable-background:new 0 0 43 43;" xml:space="preserve">
<style type="text/css">
	.st0{fill:#FFFFFF;}
</style>
<g>
	<path class="st0" d="M5.36,42c-2.47,0-4.48-2.01-4.48-4.48V5.48C0.88,3.01,2.89,1,5.36,1h32.03c2.47,0,4.48,2.01,4.48,4.48v32.03
		c0,2.47-2.01,4.48-4.48,4.48H5.36z"/>
	<path d="M37.39,2c1.92,0,3.48,1.56,3.48,3.48v32.03c0,1.92-1.56,3.48-3.48,3.48H5.36c-1.92,0-3.48-1.56-3.48-3.48V5.48
		C1.88,3.56,3.44,2,5.36,2H37.39 M37.39,0H5.36C2.33,0-0.13,2.46-0.13,5.48v32.03c0,3.03,2.46,5.48,5.48,5.48h32.03
		c3.03,0,5.48-2.46,5.48-5.48V5.48C42.88,2.46,40.42,0,37.39,0L37.39,0z"/>
</g>
<g>
	<circle class="st0" cx="21.38" cy="21.5" r="10"/>
	<path d="M21.38,12.5c4.96,0,9,4.04,9,9s-4.04,9-9,9s-9-4.04-9-9S16.41,12.5,21.38,12.5 M21.38,10.5c-6.08,0-11,4.92-11,11
		s4.92,11,11,11s11-4.92,11-11S27.45,10.5,21.38,10.5L21.38,10.5z"/>
</g>
<g>
	<circle cx="34.19" cy="8.81" r="2.15"/>
</g>
</svg>
