<svg id="Logo_sans_baseline" data-name="Logo_sans baseline" xmlns="http://www.w3.org/2000/svg" viewBox="0 0 841.89 595.28"><defs><style>.cls-1{fill:#3c3c3b;stroke:#1d1d1b;stroke-miterlimit:10;}.cls-2{fill:#55b14d;}.cls-3{fill:#abacb0;}.cls-4{fill:#396567;}.cls-5{fill:#fff;}</style></defs><rect class="cls-1" width="841.89" height="595.28"/><path class="cls-2" d="M314.2,176.1a24.38,24.38,0,0,1-4.27,14.2c-7,11.35-33.38,109.5-45.8,169.52,3.49,6.08,4.66,9.73,4.66,12.17,0,4.87-3.89,4.87-3.89,4.87-20.57-6.9-26.78-19.88-26.78-32.45,0-10.54,1.56-10.14,14-50.29-10.87,3.24-23.68,6.89-37.65,10.54-28.34,44.21-44.64,62.87-62.49,62.87-20.57,0-22.9-26.37-22.9-26.37a8.49,8.49,0,0,0,7.76,4.47c10.87,0,28.33-16.23,44.63-35.29-5,.41-9.7.41-14,.41-32.21,0-38.81-15.41-38.81-27.17A39.88,39.88,0,0,1,130.22,273s24.84,11,64.43,11c2.72,0,5.44-.4,8.15-.4,8.93-12.17,16.69-21.9,20.58-28,14-20.28,50.84-94.9,66-97.74C308,157.85,314.2,166,314.2,176.1Zm-35.71,28c-14,18.65-31.83,47.85-49.29,76.65a244.91,244.91,0,0,0,29.11-6.9C264.9,251.13,272.28,225.58,278.49,204.09Z"/><path class="cls-3" d="M307.19,281.6h2.41c3.07,0,8.11.88,11.17,7.67,0,0-22.57,25-25.42,46a2.12,2.12,0,0,0,2.2,1.54c7,0,22.57-28.93,29.8-39.45,3.51-6.13,9.64-15.78,15.34-15.78,3.07,0,8.11.88,11,7.67,0,0-19.95,22.14-24.55,42.74.44,2.85.88,4.82,2,4.82,3.51,0,14.47-16,23.23-27.18l2.41,3.51s-18.18,31.56-26.29,31.56a2.39,2.39,0,0,1-2-.88s-13.58-1.53-13.58-13.15v-2.85c-6.36,8.55-14,16-19.51,16,0,0-13.8-1.31-13.8-13.37a22.66,22.66,0,0,1,.44-3.28S290.53,294.53,307.19,281.6Z"/><path class="cls-3" d="M354.3,309.65c7-11.83,15.13-24.32,15.13-24.32h.22a13.68,13.68,0,0,1,.43-4.16s5-4.17,9.86-4.17c2.42,0,4.61,1.1,6.14,4.17a86.6,86.6,0,0,0-.87,13.36c0,3.07.21,6.58.43,10.74,10.74-10.08,20.6-18.63,21.92-19.94a15.71,15.71,0,0,1,7.23-2,10.59,10.59,0,0,1,9.21,5,275.54,275.54,0,0,0-36.82,26.29l.87,5.7c1.1,4.17,4.83,16.22,11.18,16.22,4.6,0,14.25-16.44,22.57-27l2.2,3.51s-17.76,31.56-25.86,31.56a2.69,2.69,0,0,1-2-.88h-.22c-9,0-15.56-8.33-19.72-19.28-7.67,7.88-14.24,16-17.09,23.88,0,0-5-4.38-5-9,0-4.17,5.47-9,19.5-23A110.65,110.65,0,0,1,370.08,293c-4.82,6.35-10.95,15.56-13.8,20.16Z"/><path class="cls-3" d="M440.65,281.6h2.63c2.85,0,7.89.88,10.74,7.67,0,0-22.13,24.77-25.2,46a2.37,2.37,0,0,0,2.41,1.54c6.36,0,19.07-22.14,26.95-35.07,4.39-9.2,8.55-16.65,12.72-19.94a22.4,22.4,0,0,1,4.38-.44c3.94,0,9,1.32,9.2,7.89-22.57,27-32.43,89.85-64.87,89.85-5.25,0-17.53-2-17.53-12.49,0-13.58,10.52-18.19,19.07-18.19A58.23,58.23,0,0,1,433,350l-1.09,3.07a23,23,0,0,0-5.26-.66c-8.55,0-12.49,5.48-12.49,10.08,0,3.72,2.19,7,7,7,8.33,0,16.65-18.19,24.76-38.13-5.91,7-12.27,12.49-17.09,12.49,0,0-13.59-1.31-13.59-13.37a18.79,18.79,0,0,1,.22-3.28S424.44,294.53,440.65,281.6Z"/><path class="cls-4" d="M567.76,246.54c13.15,0,28.71,6.13,28.71,19.72,0,15.34-15.56,32.44-26.08,32.44a13.91,13.91,0,0,1-8.55-2.85c6.58-4,12.71-4.17,18.85-24.77a20.26,20.26,0,0,0,.88-5.91c0-5.26-3.51-7-7.89-7.23-18.63,2.62-39,38.78-43.83,49.3-2.41,5-5,15.56-5,25.2,0,10.09,3.07,19.07,12.93,19.07,27.17,0,41-29.36,50.4-39.45,3.73.44,4.39,1.54,4.39,2.42a2.71,2.71,0,0,1-.44,1.09C580,334.64,557,362.91,536.64,362.91c-16.44,0-29.58-11.18-29.58-34.63,0-48.21,43.17-76.48,53-80.86A27.23,27.23,0,0,1,567.76,246.54Z"/><path class="cls-4" d="M647.31,313.38a38.33,38.33,0,0,1-14.9,9.86c-5.92,9.42-16,20.82-27.61,20.82-14.25,0-18.41-7.23-18.41-17.09,0-21,8.77-23,12.05-24.33,2-17.53,11.18-22.79,22.36-22.79,12.05,0,20.6,3.94,20.6,16.66,0,5.25-1.76,11.61-4.38,18.18a98.57,98.57,0,0,0,9.2-5ZM602,317.76c-.88,3.95-1.75,7.67-1.75,10.52,0,6.36,3.94,7.23,5.7,7.23,2.19,0,7-2.85,12.93-10.08C610.72,325.43,604.8,321.93,602,317.76Zm9.42-14.24c0,8.33,3.73,14,13.37,14,5-7,8.77-15.12,8.77-21.25a10.14,10.14,0,0,0-9.64-10.3c-5.26,0-9.87,4.82-11.18,8.76A30.29,30.29,0,0,0,611.37,303.52Z"/><path class="cls-4" d="M665.07,281.6h2.41c2.85,0,7.89.88,10.74,7.67A151.89,151.89,0,0,0,665.07,307C675.15,295.19,689.61,281,697.94,281a3.7,3.7,0,0,1,1.53.22v.43c3.07.22,6.8,1.76,9.43,7.67A155.86,155.86,0,0,0,694,309.43C704.3,297.16,719.64,281,729.06,281a4.22,4.22,0,0,1,1.53.22v.43c2.85.22,7,1.76,9.65,7.67,0,0-20.17,22.14-24.77,42.74.44,2.85.88,4.82,2,4.82,3.73,0,14.47-16.22,23.45-27.18l2,3.51s-18,31.56-26.08,31.56a2,2,0,0,1-1.76-.88s-14-1.31-14-13.37a22.66,22.66,0,0,1,.44-3.28,137.3,137.3,0,0,1,11.61-28.49c-8.33,6.35-18.41,16.43-28.93,32.87a32.63,32.63,0,0,0-.87,7.89,26.42,26.42,0,0,0,.22,4.38s-13.59-1.31-13.59-13.37a22.66,22.66,0,0,1,.44-3.28,127.59,127.59,0,0,1,11.17-28.27c-7.67,6.13-17.31,15.77-27.39,31.11a32.65,32.65,0,0,0-1.32,10.08v3.73s-13.36-1.31-13.36-13.37c0-1.09.22-2.19.22-3.28C639.65,327.19,648.41,294.53,665.07,281.6Z"/><path class="cls-2" d="M512.23,257.84l-4.42-15.78-9.08,11.18c-.71.87-1.44,1.73-2.19,2.56a10.24,10.24,0,0,0-2.48,5.17c-1.06,6,2.5,12.4,7.93,14.3s10.81-1.45,11.85-7.48a12.88,12.88,0,0,0-.45-6.11C513,260.4,512.59,259.13,512.23,257.84Z"/><path class="cls-5" d="M511.09,262.08s-1.34,14.65-8.47,11.16a16.6,16.6,0,0,0,6.78-8.05,15.19,15.19,0,0,1-6.67,6.55h0a2.6,2.6,0,0,0-.75.65c.05-.53.05-1.35.1-1.8C502.92,262.35,508.91,265.58,511.09,262.08Z"/><path class="cls-5" d="M496.8,260s7.74,4.52,4.32,11.17c-.24-2.1-.95-6.19-3-8.74a17.83,17.83,0,0,1,2.17,8.32h0v0a3.47,3.47,0,0,0,.19.92c-.28-.17-.72-.35-1-.49C495.21,268.58,498.26,263.05,496.8,260Z"/></svg>